<svg width="21" height="24" viewBox="0 0 21 24" fill="none" xmlns="http://www.w3.org/2000/svg">
<path d="M10.3749 9.79015C8.97914 9.79015 7.84324 10.9256 7.84324 12.3214C7.84324 13.7172 8.97914 14.8526 10.3749 14.8526C11.7707 14.8526 12.9066 13.7172 12.9066 12.3214C12.9066 10.9256 11.7707 9.79015 10.3749 9.79015ZM10.3749 13.4062C9.77557 13.4062 9.29012 12.9203 9.29012 12.3214C9.29012 11.722 9.77602 11.2366 10.3749 11.2366C10.9738 11.2366 11.4598 11.722 11.4598 12.3214C11.4598 12.9203 10.9743 13.4062 10.3749 13.4062ZM18.9052 12.3214C19.6081 11.4052 20.1125 10.4853 20.3476 9.60935C20.6201 8.58736 20.5257 7.64673 20.0737 6.88871C19.2497 5.51009 17.3453 4.94689 14.9425 5.15165C13.8916 2.45949 12.253 0.75 10.3749 0.75C8.49684 0.75 6.85832 2.45904 5.80785 5.1512C3.40453 4.94644 1.50067 5.50964 0.677567 6.88917C0.224203 7.64673 0.129734 8.58736 0.402294 9.60935C0.637338 10.4853 1.14178 11.4052 1.84465 12.3214C1.14178 13.2376 0.637338 14.1574 0.402294 15.0334C0.129734 16.0554 0.224203 16.9961 0.676211 17.7541C1.39264 18.9519 2.91817 19.5404 4.88214 19.5404C5.16962 19.5404 5.49235 19.4884 5.79746 19.4631C6.84747 22.1715 8.49052 23.8928 10.3749 23.8928C12.2594 23.8928 13.9024 22.1715 14.9524 19.4631C15.2575 19.4884 15.5803 19.5404 15.8677 19.5404C17.8299 19.5404 19.3572 18.9519 20.0723 17.7541C20.5257 16.9961 20.6206 16.0554 20.3476 15.0334C20.1125 14.1574 19.6081 13.2376 18.9052 12.3214ZM1.80081 9.23508C1.62723 8.59097 1.66792 8.05083 1.91968 7.63046C2.33643 6.9312 3.39865 6.54654 4.86406 6.54654C5.01458 6.54654 5.1773 6.55875 5.33596 6.56688C5.08509 7.45824 4.89434 8.4278 4.76778 9.45431C4.04321 10.0148 3.38148 10.597 2.80969 11.1923C2.32513 10.5188 1.96714 9.85524 1.80081 9.23508ZM4.60913 13.168C4.2995 12.8878 4.01157 12.6057 3.74444 12.3214C4.01112 12.0371 4.2995 11.755 4.60913 11.4748C4.59964 11.7555 4.58834 12.0348 4.58834 12.3214C4.58834 12.608 4.59918 12.8873 4.60913 13.168ZM1.91833 17.0123C1.66837 16.592 1.62723 16.0518 1.80126 15.4077C1.9676 14.7875 2.32559 14.124 2.80969 13.4505C3.38148 14.0458 4.04367 14.628 4.76778 15.1885C4.89434 16.2163 5.08554 17.1863 5.33641 18.0786C3.63144 18.1668 2.37983 17.7839 1.91833 17.0123ZM14.339 8.30124C13.9603 8.06077 13.5751 7.82347 13.172 7.59882C12.8813 7.43655 12.5907 7.28648 12.3005 7.14003C12.8763 6.96736 13.4269 6.83809 13.9535 6.74226C14.1074 7.25532 14.236 7.7756 14.339 8.30124ZM10.3749 2.19642C11.4629 2.19642 12.6133 3.373 13.4576 5.35912C12.4763 5.55394 11.4381 5.86356 10.3754 6.27896C9.31227 5.86356 8.274 5.55303 7.29224 5.35822C8.13659 3.37255 9.28695 2.19642 10.3749 2.19642ZM6.79639 6.74226C7.32298 6.83809 7.87353 6.96691 8.44893 7.14003C8.15874 7.28648 7.8681 7.43655 7.57791 7.59882C7.17472 7.82347 6.78961 8.06077 6.41083 8.30124C6.51383 7.7756 6.64251 7.25532 6.79639 6.74226ZM6.41083 16.3415C6.78961 16.582 7.17472 16.8193 7.57791 17.044C7.88166 17.2135 8.1827 17.3373 8.486 17.4896C7.89839 17.6673 7.33383 17.8042 6.79684 17.9023C6.65039 17.4128 6.51886 16.8944 6.41083 16.3415ZM10.3749 22.4464C9.28288 22.4464 8.12755 21.2607 7.2823 19.2606C8.26858 19.0667 9.30594 18.7593 10.3749 18.3421C11.4439 18.7598 12.4813 19.0667 13.4676 19.2606C12.6223 21.2607 11.467 22.4464 10.3749 22.4464ZM13.9535 17.9019C13.4169 17.8042 12.8528 17.6673 12.2652 17.4896C12.5681 17.3373 12.8691 17.2135 13.1724 17.0444C13.5756 16.8198 13.9607 16.5825 14.3395 16.342C14.231 16.8939 14.0999 17.4119 13.9535 17.9019ZM14.6175 14.4038C13.9503 14.8883 13.2348 15.3544 12.4686 15.7815C11.759 16.1775 11.0597 16.5133 10.3758 16.803C9.6915 16.5133 8.99179 16.1775 8.28124 15.7815C7.51508 15.3539 6.79956 14.8883 6.13239 14.4038C6.06956 13.7384 6.03476 13.0442 6.03476 12.3214C6.03476 11.5986 6.06956 10.9043 6.13239 10.239C6.79956 9.75444 7.51508 9.28842 8.28124 8.86127C8.99044 8.46577 9.69105 8.12541 10.3745 7.83567C11.0584 8.12541 11.759 8.46577 12.4686 8.86127C13.2348 9.28887 13.9503 9.75444 14.6175 10.239C14.6799 10.9043 14.7151 11.5986 14.7151 12.3214C14.7151 13.0442 14.6799 13.7384 14.6175 14.4038ZM15.8863 6.54609C17.3512 6.54609 18.4139 6.9312 18.832 7.63001C19.082 8.05037 19.1231 8.59052 18.9491 9.23463C18.7827 9.85479 18.4247 10.5183 17.9406 11.1918C17.3688 10.5965 16.7067 10.0143 15.9825 9.45386C15.856 8.4269 15.6652 7.45779 15.4144 6.56643C15.573 6.5583 15.7357 6.54609 15.8863 6.54609ZM16.1407 11.4748C16.4504 11.755 16.7383 12.0371 17.0054 12.3214C16.7383 12.6057 16.4504 12.8878 16.1407 13.168C16.1502 12.8873 16.1615 12.608 16.1615 12.3214C16.1615 12.0348 16.1507 11.7555 16.1407 11.4748ZM18.8302 17.0123C18.3709 17.7839 17.1193 18.1668 15.4135 18.0777C15.6648 17.1854 15.8555 16.2159 15.9821 15.1885C16.7067 14.628 17.3684 14.0458 17.9402 13.4505C18.4243 14.124 18.7827 14.7875 18.9486 15.4077C19.1226 16.0518 19.082 16.592 18.8302 17.0123Z" fill="#F61067"/>
</svg>
