<?xml version="1.0" standalone="no"?><svg xmlns="http://www.w3.org/2000/svg" viewBox="0 0 1440 320"><path fill="#0099ff" fill-opacity="1" d="M0,64L8.3,80C16.6,96,33,128,50,160C66.2,192,83,224,99,202.7C115.9,181,132,107,149,85.3C165.5,64,182,96,199,96C215.2,96,232,64,248,96C264.8,128,281,224,298,266.7C314.5,309,331,299,348,256C364.1,213,381,139,397,122.7C413.8,107,430,149,447,181.3C463.4,213,480,235,497,218.7C513.1,203,530,149,546,112C562.8,75,579,53,596,90.7C612.4,128,629,224,646,240C662.1,256,679,192,695,165.3C711.7,139,728,149,745,170.7C761.4,192,778,224,794,202.7C811,181,828,107,844,117.3C860.7,128,877,224,894,229.3C910.3,235,927,149,943,144C960,139,977,213,993,208C1009.7,203,1026,117,1043,106.7C1059.3,96,1076,160,1092,154.7C1109,149,1126,75,1142,85.3C1158.6,96,1175,192,1192,218.7C1208.3,245,1225,203,1241,176C1257.9,149,1274,139,1291,117.3C1307.6,96,1324,64,1341,80C1357.2,96,1374,160,1390,170.7C1406.9,181,1423,139,1432,117.3L1440,96L1440,320L1431.7,320C1423.4,320,1407,320,1390,320C1373.8,320,1357,320,1341,320C1324.1,320,1308,320,1291,320C1274.5,320,1258,320,1241,320C1224.8,320,1208,320,1192,320C1175.2,320,1159,320,1142,320C1125.5,320,1109,320,1092,320C1075.9,320,1059,320,1043,320C1026.2,320,1010,320,993,320C976.6,320,960,320,943,320C926.9,320,910,320,894,320C877.2,320,861,320,844,320C827.6,320,811,320,794,320C777.9,320,761,320,745,320C728.3,320,712,320,695,320C678.6,320,662,320,646,320C629,320,612,320,596,320C579.3,320,563,320,546,320C529.7,320,513,320,497,320C480,320,463,320,447,320C430.3,320,414,320,397,320C380.7,320,364,320,348,320C331,320,314,320,298,320C281.4,320,265,320,248,320C231.7,320,215,320,199,320C182.1,320,166,320,149,320C132.4,320,116,320,99,320C82.8,320,66,320,50,320C33.1,320,17,320,8,320L0,320Z"></path></svg>